<?xml version="1.0" encoding="UTF-8" standalone="no"?>
<!DOCTYPE svg PUBLIC "-//W3C//DTD SVG 1.1//EN"
 "http://www.w3.org/Graphics/SVG/1.1/DTD/svg11.dtd">
<!-- Generated by graphviz version 2.43.0 (0)
 -->
<!-- Title: NeomeltBlogArchitecture Pages: 1 -->
<svg width="1451pt" height="1018pt"
 viewBox="0.00 0.00 1451.09 1017.60" xmlns="http://www.w3.org/2000/svg" xmlns:xlink="http://www.w3.org/1999/xlink">
<g id="graph0" class="graph" transform="scale(1 1) rotate(0) translate(28.8 988.8)">
<title>NeomeltBlogArchitecture</title>
<polygon fill="#ffffff" stroke="transparent" points="-28.8,28.8 -28.8,-988.8 1422.29,-988.8 1422.29,28.8 -28.8,28.8"/>
<text text-anchor="middle" x="696.75" y="-936.8" font-family="Arial" font-size="24.00" fill="#111827">Neomelt Blog Architecture</text>
<g id="clust1" class="cluster">
<title>cluster_source</title>
<path fill="#eff6ff" stroke="#bfdbfe" d="M468,-644C468,-644 1038,-644 1038,-644 1044,-644 1050,-650 1050,-656 1050,-656 1050,-906 1050,-906 1050,-912 1044,-918 1038,-918 1038,-918 468,-918 468,-918 462,-918 456,-912 456,-906 456,-906 456,-656 456,-656 456,-650 462,-644 468,-644"/>
<text text-anchor="middle" x="753" y="-894.8" font-family="Arial" font-size="24.00" fill="#111827">1. Source Layer</text>
</g>
<g id="clust2" class="cluster">
<title>cluster_build</title>
<path fill="#f0fdf4" stroke="#bbf7d0" d="M701,-176C701,-176 1328,-176 1328,-176 1334,-176 1340,-182 1340,-188 1340,-188 1340,-624 1340,-624 1340,-630 1334,-636 1328,-636 1328,-636 701,-636 701,-636 695,-636 689,-630 689,-624 689,-624 689,-188 689,-188 689,-182 695,-176 701,-176"/>
<text text-anchor="middle" x="1014.5" y="-612.8" font-family="Arial" font-size="24.00" fill="#111827">2. Build / SSG Layer</text>
</g>
<g id="clust3" class="cluster">
<title>cluster_output</title>
<path fill="#fffbeb" stroke="#fde68a" d="M659,-8C659,-8 837,-8 837,-8 843,-8 849,-14 849,-20 849,-20 849,-156 849,-156 849,-162 843,-168 837,-168 837,-168 659,-168 659,-168 653,-168 647,-162 647,-156 647,-156 647,-20 647,-20 647,-14 653,-8 659,-8"/>
<text text-anchor="middle" x="748" y="-144.8" font-family="Arial" font-size="24.00" fill="#111827">3. Static Output</text>
</g>
<g id="clust4" class="cluster">
<title>cluster_runtime</title>
<path fill="#faf5ff" stroke="#e9d5ff" d="M20,-176C20,-176 611,-176 611,-176 617,-176 623,-182 623,-188 623,-188 623,-604.87 623,-604.87 623,-610.87 617,-616.87 611,-616.87 611,-616.87 20,-616.87 20,-616.87 14,-616.87 8,-610.87 8,-604.87 8,-604.87 8,-188 8,-188 8,-182 14,-176 20,-176"/>
<text text-anchor="middle" x="315.5" y="-593.67" font-family="Arial" font-size="24.00" fill="#111827">4. Browser Runtime</text>
</g>
<!-- source_content -->
<g id="node1" class="node">
<title>source_content</title>
<path fill="#ffffff" stroke="#cbd5e1" stroke-width="1.2" d="M894.5,-726C894.5,-726 577.5,-726 577.5,-726 571.5,-726 565.5,-720 565.5,-714 565.5,-714 565.5,-664 565.5,-664 565.5,-658 571.5,-652 577.5,-652 577.5,-652 894.5,-652 894.5,-652 900.5,-652 906.5,-658 906.5,-664 906.5,-664 906.5,-714 906.5,-714 906.5,-720 900.5,-726 894.5,-726"/>
<text text-anchor="middle" x="736" y="-703.2" font-family="Arial" font-size="16.00">Blog Content</text>
<text text-anchor="middle" x="736" y="-685.2" font-family="Arial" font-size="16.00">src/content/blog/*.md, *.mdx</text>
<text text-anchor="middle" x="736" y="-667.2" font-family="Arial" font-size="16.00">frontmatter schema via src/content.config.ts</text>
</g>
<!-- content_pipeline -->
<g id="node4" class="node">
<title>content_pipeline</title>
<path fill="#ffffff" stroke="#cbd5e1" stroke-width="1.2" d="M964.5,-594C964.5,-594 709.5,-594 709.5,-594 703.5,-594 697.5,-588 697.5,-582 697.5,-582 697.5,-514 697.5,-514 697.5,-508 703.5,-502 709.5,-502 709.5,-502 964.5,-502 964.5,-502 970.5,-502 976.5,-508 976.5,-514 976.5,-514 976.5,-582 976.5,-582 976.5,-588 970.5,-594 964.5,-594"/>
<text text-anchor="middle" x="837" y="-571.2" font-family="Arial" font-size="16.00">Astro Content Pipeline</text>
<text text-anchor="middle" x="837" y="-553.2" font-family="Arial" font-size="16.00">astro:content + getCollection(&#39;blog&#39;)</text>
<text text-anchor="middle" x="837" y="-535.2" font-family="Arial" font-size="16.00">MDX / Markdown transforms</text>
<text text-anchor="middle" x="837" y="-517.2" font-family="Arial" font-size="16.00">math + video embed processing</text>
</g>
<!-- source_content&#45;&gt;content_pipeline -->
<g id="edge2" class="edge">
<title>source_content&#45;&gt;content_pipeline</title>
<path fill="none" stroke="#64748b" stroke-width="1.4" d="M762.27,-651.84C773.57,-636.29 786.99,-617.82 799.32,-600.85"/>
<polygon fill="#64748b" stroke="#64748b" stroke-width="1.4" points="801.73,-602.3 804.17,-594.18 797.2,-599.01 801.73,-602.3"/>
</g>
<!-- source_app -->
<g id="node2" class="node">
<title>source_app</title>
<path fill="#ffffff" stroke="#cbd5e1" stroke-width="1.2" d="M1029.5,-876C1029.5,-876 730.5,-876 730.5,-876 724.5,-876 718.5,-870 718.5,-864 718.5,-864 718.5,-796 718.5,-796 718.5,-790 724.5,-784 730.5,-784 730.5,-784 1029.5,-784 1029.5,-784 1035.5,-784 1041.5,-790 1041.5,-796 1041.5,-796 1041.5,-864 1041.5,-864 1041.5,-870 1035.5,-876 1029.5,-876"/>
<text text-anchor="middle" x="880" y="-853.2" font-family="Arial" font-size="16.00">Site Config + Shared UI</text>
<text text-anchor="middle" x="880" y="-835.2" font-family="Arial" font-size="16.00">astro.config.mjs</text>
<text text-anchor="middle" x="880" y="-817.2" font-family="Arial" font-size="16.00">layouts / components / i18n / friends data</text>
<text text-anchor="middle" x="880" y="-799.2" font-family="Arial" font-size="16.00">global.css + public assets</text>
</g>
<!-- page_build -->
<g id="node6" class="node">
<title>page_build</title>
<path fill="#ffffff" stroke="#cbd5e1" stroke-width="1.2" d="M1158,-444C1158,-444 842,-444 842,-444 836,-444 830,-438 830,-432 830,-432 830,-346 830,-346 830,-340 836,-334 842,-334 842,-334 1158,-334 1158,-334 1164,-334 1170,-340 1170,-346 1170,-346 1170,-432 1170,-432 1170,-438 1164,-444 1158,-444"/>
<text text-anchor="middle" x="1000" y="-421.2" font-family="Arial" font-size="16.00">Page Assembly</text>
<text text-anchor="middle" x="1000" y="-403.2" font-family="Arial" font-size="16.00">BaseLayout + BaseHead + Header + Footer</text>
<text text-anchor="middle" x="1000" y="-385.2" font-family="Arial" font-size="16.00">Home / Posts / Archive / Tags</text>
<text text-anchor="middle" x="1000" y="-367.2" font-family="Arial" font-size="16.00">About / Friends / Projects / Terms</text>
<text text-anchor="middle" x="1000" y="-349.2" font-family="Arial" font-size="16.00">post detail + pagination + SEO</text>
</g>
<!-- source_app&#45;&gt;page_build -->
<g id="edge3" class="edge">
<title>source_app&#45;&gt;page_build</title>
<path fill="none" stroke="#64748b" stroke-width="1.4" d="M1041.75,-814.77C1161.32,-800.5 1309.72,-773.62 1348,-726 1410.37,-648.41 1406.63,-582.46 1348,-502 1308.57,-447.89 1242.55,-419.36 1178.54,-404.51"/>
<polygon fill="#64748b" stroke="#64748b" stroke-width="1.4" points="1178.76,-401.69 1170.34,-402.68 1177.54,-407.15 1178.76,-401.69"/>
</g>
<!-- source_scripts -->
<g id="node3" class="node">
<title>source_scripts</title>
<path fill="#ffffff" stroke="#cbd5e1" stroke-width="1.2" d="M674,-867C674,-867 476,-867 476,-867 470,-867 464,-861 464,-855 464,-855 464,-805 464,-805 464,-799 470,-793 476,-793 476,-793 674,-793 674,-793 680,-793 686,-799 686,-805 686,-805 686,-855 686,-855 686,-861 680,-867 674,-867"/>
<text text-anchor="middle" x="575" y="-844.2" font-family="Arial" font-size="16.00">Authoring Scripts</text>
<text text-anchor="middle" x="575" y="-826.2" font-family="Arial" font-size="16.00">scripts/new&#45;post.mjs</text>
<text text-anchor="middle" x="575" y="-808.2" font-family="Arial" font-size="16.00">scripts/auto&#45;frontmatter.mjs</text>
</g>
<!-- source_scripts&#45;&gt;source_content -->
<g id="edge1" class="edge">
<title>source_scripts&#45;&gt;source_content</title>
<path fill="none" stroke="#64748b" stroke-width="1.4" d="M616.88,-792.84C638.6,-774.09 665.23,-751.1 687.8,-731.61"/>
<polygon fill="#64748b" stroke="#64748b" stroke-width="1.4" points="689.82,-733.57 694.05,-726.22 686.16,-729.33 689.82,-733.57"/>
</g>
<!-- content_pipeline&#45;&gt;page_build -->
<g id="edge4" class="edge">
<title>content_pipeline&#45;&gt;page_build</title>
<path fill="none" stroke="#64748b" stroke-width="1.4" d="M884.15,-501.59C900.87,-485.48 919.96,-467.09 937.75,-449.96"/>
<polygon fill="#64748b" stroke="#64748b" stroke-width="1.4" points="939.91,-451.77 943.73,-444.2 936.03,-447.73 939.91,-451.77"/>
</g>
<!-- friend_circle_build -->
<g id="node5" class="node">
<title>friend_circle_build</title>
<path fill="#ffffff" stroke="#cbd5e1" stroke-width="1.2" d="M1319.5,-594C1319.5,-594 1020.5,-594 1020.5,-594 1014.5,-594 1008.5,-588 1008.5,-582 1008.5,-582 1008.5,-514 1008.5,-514 1008.5,-508 1014.5,-502 1020.5,-502 1020.5,-502 1319.5,-502 1319.5,-502 1325.5,-502 1331.5,-508 1331.5,-514 1331.5,-514 1331.5,-582 1331.5,-582 1331.5,-588 1325.5,-594 1319.5,-594"/>
<text text-anchor="middle" x="1170" y="-571.2" font-family="Arial" font-size="16.00">Friend Circle Feed Import</text>
<text text-anchor="middle" x="1170" y="-553.2" font-family="Arial" font-size="16.00">getFriendCirclePosts()</text>
<text text-anchor="middle" x="1170" y="-535.2" font-family="Arial" font-size="16.00">fetch external RSS / Atom</text>
<text text-anchor="middle" x="1170" y="-517.2" font-family="Arial" font-size="16.00">cache fallback in .cache/friend&#45;circle.json</text>
</g>
<!-- friend_circle_build&#45;&gt;page_build -->
<g id="edge6" class="edge">
<title>friend_circle_build&#45;&gt;page_build</title>
<path fill="none" stroke="#64748b" stroke-width="1.4" d="M1120.83,-501.59C1103.38,-485.48 1083.48,-467.09 1064.92,-449.96"/>
<polygon fill="#64748b" stroke="#64748b" stroke-width="1.4" points="1066.46,-447.57 1058.69,-444.2 1062.66,-451.68 1066.46,-447.57"/>
</g>
<!-- derived_outputs -->
<g id="node7" class="node">
<title>derived_outputs</title>
<path fill="#ffffff" stroke="#cbd5e1" stroke-width="1.2" d="M938.5,-276C938.5,-276 725.5,-276 725.5,-276 719.5,-276 713.5,-270 713.5,-264 713.5,-264 713.5,-196 713.5,-196 713.5,-190 719.5,-184 725.5,-184 725.5,-184 938.5,-184 938.5,-184 944.5,-184 950.5,-190 950.5,-196 950.5,-196 950.5,-264 950.5,-264 950.5,-270 944.5,-276 938.5,-276"/>
<text text-anchor="middle" x="832" y="-253.2" font-family="Arial" font-size="16.00">Derived Files</text>
<text text-anchor="middle" x="832" y="-235.2" font-family="Arial" font-size="16.00">/api/search.json search index</text>
<text text-anchor="middle" x="832" y="-217.2" font-family="Arial" font-size="16.00">/rss.xml + rss.xsl</text>
<text text-anchor="middle" x="832" y="-199.2" font-family="Arial" font-size="16.00">sitemap</text>
</g>
<!-- page_build&#45;&gt;derived_outputs -->
<g id="edge7" class="edge">
<title>page_build&#45;&gt;derived_outputs</title>
<path fill="none" stroke="#64748b" stroke-width="1.4" d="M942.18,-333.97C924.02,-317 904.04,-298.32 886.14,-281.6"/>
<polygon fill="#64748b" stroke="#64748b" stroke-width="1.4" points="887.91,-279.42 880.16,-276 884.09,-283.51 887.91,-279.42"/>
</g>
<!-- static_output -->
<g id="node8" class="node">
<title>static_output</title>
<path fill="#ffffff" stroke="#cbd5e1" stroke-width="1.2" d="M829,-126C829,-126 667,-126 667,-126 661,-126 655,-120 655,-114 655,-114 655,-28 655,-28 655,-22 661,-16 667,-16 667,-16 829,-16 829,-16 835,-16 841,-22 841,-28 841,-28 841,-114 841,-114 841,-120 835,-126 829,-126"/>
<text text-anchor="middle" x="748" y="-103.2" font-family="Arial" font-size="16.00">dist/</text>
<text text-anchor="middle" x="748" y="-85.2" font-family="Arial" font-size="16.00">static HTML pages</text>
<text text-anchor="middle" x="748" y="-67.2" font-family="Arial" font-size="16.00">bundled JS / CSS</text>
<text text-anchor="middle" x="748" y="-49.2" font-family="Arial" font-size="16.00">optimized images</text>
<text text-anchor="middle" x="748" y="-31.2" font-family="Arial" font-size="16.00">search + feed artifacts</text>
</g>
<!-- page_build&#45;&gt;static_output -->
<g id="edge8" class="edge">
<title>page_build&#45;&gt;static_output</title>
<path fill="none" stroke="#64748b" stroke-width="1.4" d="M1004.85,-333.93C1006.14,-287.61 1000.85,-221.38 967,-176 938.27,-137.49 891.62,-112.65 848.75,-96.94"/>
<polygon fill="#64748b" stroke="#64748b" stroke-width="1.4" points="849.54,-94.25 841.07,-94.2 847.67,-99.52 849.54,-94.25"/>
</g>
<!-- derived_outputs&#45;&gt;static_output -->
<g id="edge9" class="edge">
<title>derived_outputs&#45;&gt;static_output</title>
<path fill="none" stroke="#64748b" stroke-width="1.4" d="M807.7,-183.59C799.31,-167.9 789.76,-150.05 780.8,-133.3"/>
<polygon fill="#64748b" stroke="#64748b" stroke-width="1.4" points="783.24,-131.93 777,-126.2 778.3,-134.57 783.24,-131.93"/>
</g>
<!-- browser -->
<g id="node9" class="node">
<title>browser</title>
<ellipse fill="#ffffff" stroke="#cbd5e1" stroke-width="1.2" cx="493" cy="-548" rx="95.42" ry="26.74"/>
<text text-anchor="middle" x="493" y="-544.2" font-family="Arial" font-size="16.00">Visitor Browser</text>
</g>
<!-- static_output&#45;&gt;browser -->
<g id="edge10" class="edge">
<title>static_output&#45;&gt;browser</title>
<path fill="none" stroke="#64748b" stroke-width="1.4" d="M710.88,-126.2C701.41,-141.77 691.96,-159.12 685,-176 638.26,-289.3 685.48,-340.4 620,-444 600.35,-475.08 568.08,-501.08 540.98,-519.18"/>
<polygon fill="#64748b" stroke="#64748b" stroke-width="1.4" points="539.37,-516.88 534.21,-523.61 542.44,-521.57 539.37,-516.88"/>
</g>
<!-- runtime_shell -->
<g id="node10" class="node">
<title>runtime_shell</title>
<path fill="#ffffff" stroke="#cbd5e1" stroke-width="1.2" d="M591.5,-435C591.5,-435 340.5,-435 340.5,-435 334.5,-435 328.5,-429 328.5,-423 328.5,-423 328.5,-355 328.5,-355 328.5,-349 334.5,-343 340.5,-343 340.5,-343 591.5,-343 591.5,-343 597.5,-343 603.5,-349 603.5,-355 603.5,-355 603.5,-423 603.5,-423 603.5,-429 597.5,-435 591.5,-435"/>
<text text-anchor="middle" x="466" y="-412.2" font-family="Arial" font-size="16.00">Client UI Runtime</text>
<text text-anchor="middle" x="466" y="-394.2" font-family="Arial" font-size="16.00">header theme / locale / mobile nav</text>
<text text-anchor="middle" x="466" y="-376.2" font-family="Arial" font-size="16.00">code copy + click particles</text>
<text text-anchor="middle" x="466" y="-358.2" font-family="Arial" font-size="16.00">friend&#45;circle shuffle button</text>
</g>
<!-- browser&#45;&gt;runtime_shell -->
<g id="edge11" class="edge">
<title>browser&#45;&gt;runtime_shell</title>
<path fill="none" stroke="#64748b" stroke-width="1.4" d="M488.54,-521.07C484.9,-499.92 479.64,-469.34 475.12,-443.04"/>
<polygon fill="#64748b" stroke="#64748b" stroke-width="1.4" points="477.86,-442.44 473.74,-435.03 472.34,-443.39 477.86,-442.44"/>
</g>
<!-- search_runtime -->
<g id="node11" class="node">
<title>search_runtime</title>
<path fill="#ffffff" stroke="#cbd5e1" stroke-width="1.2" d="M602.5,-267C602.5,-267 329.5,-267 329.5,-267 323.5,-267 317.5,-261 317.5,-255 317.5,-255 317.5,-205 317.5,-205 317.5,-199 323.5,-193 329.5,-193 329.5,-193 602.5,-193 602.5,-193 608.5,-193 614.5,-199 614.5,-205 614.5,-205 614.5,-255 614.5,-255 614.5,-261 608.5,-267 602.5,-267"/>
<text text-anchor="middle" x="466" y="-244.2" font-family="Arial" font-size="16.00">Search Runtime</text>
<text text-anchor="middle" x="466" y="-226.2" font-family="Arial" font-size="16.00">SearchModal fetches /api/search.json</text>
<text text-anchor="middle" x="466" y="-208.2" font-family="Arial" font-size="16.00">client&#45;side filter + highlight</text>
</g>
<!-- runtime_shell&#45;&gt;search_runtime -->
<g id="edge12" class="edge">
<title>runtime_shell&#45;&gt;search_runtime</title>
<path fill="none" stroke="#64748b" stroke-width="1.4" d="M466,-342.59C466,-321.4 466,-296.28 466,-275.24"/>
<polygon fill="#64748b" stroke="#64748b" stroke-width="1.4" points="468.8,-275.1 466,-267.1 463.2,-275.1 468.8,-275.1"/>
</g>
<!-- comments_runtime -->
<g id="node12" class="node">
<title>comments_runtime</title>
<path fill="#ffffff" stroke="#cbd5e1" stroke-width="1.2" d="M273.5,-276C273.5,-276 28.5,-276 28.5,-276 22.5,-276 16.5,-270 16.5,-264 16.5,-264 16.5,-196 16.5,-196 16.5,-190 22.5,-184 28.5,-184 28.5,-184 273.5,-184 273.5,-184 279.5,-184 285.5,-190 285.5,-196 285.5,-196 285.5,-264 285.5,-264 285.5,-270 279.5,-276 273.5,-276"/>
<text text-anchor="middle" x="151" y="-253.2" font-family="Arial" font-size="16.00">Comments Runtime</text>
<text text-anchor="middle" x="151" y="-235.2" font-family="Arial" font-size="16.00">Comments.astro + WalineCounter</text>
<text text-anchor="middle" x="151" y="-217.2" font-family="Arial" font-size="16.00">vendor Waline script first</text>
<text text-anchor="middle" x="151" y="-199.2" font-family="Arial" font-size="16.00">CDN fallback if needed</text>
</g>
<!-- runtime_shell&#45;&gt;comments_runtime -->
<g id="edge13" class="edge">
<title>runtime_shell&#45;&gt;comments_runtime</title>
<path fill="none" stroke="#64748b" stroke-width="1.4" d="M375.31,-342.8C335.62,-323.02 288.98,-299.77 248.54,-279.61"/>
<polygon fill="#64748b" stroke="#64748b" stroke-width="1.4" points="249.73,-277.08 241.32,-276.02 247.23,-282.09 249.73,-277.08"/>
</g>
<!-- search_runtime&#45;&gt;static_output -->
<g id="edge14" class="edge">
<title>search_runtime&#45;&gt;static_output</title>
<path fill="none" stroke="#64748b" stroke-width="1.4" d="M530.7,-192.98C565.29,-173.72 608.66,-149.58 647.53,-127.93"/>
<polygon fill="#64748b" stroke="#64748b" stroke-width="1.4" points="649.11,-130.26 654.74,-123.92 646.39,-125.37 649.11,-130.26"/>
</g>
<!-- waline_server -->
<g id="node13" class="node">
<title>waline_server</title>
<path fill="#fef2f2" stroke="#fecaca" stroke-width="1.2" d="M284.5,-102.5C284.5,-106.36 224.66,-109.5 151,-109.5 77.34,-109.5 17.5,-106.36 17.5,-102.5 17.5,-102.5 17.5,-39.5 17.5,-39.5 17.5,-35.64 77.34,-32.5 151,-32.5 224.66,-32.5 284.5,-35.64 284.5,-39.5 284.5,-39.5 284.5,-102.5 284.5,-102.5"/>
<path fill="none" stroke="#fecaca" stroke-width="1.2" d="M284.5,-102.5C284.5,-98.64 224.66,-95.5 151,-95.5 77.34,-95.5 17.5,-98.64 17.5,-102.5"/>
<text text-anchor="middle" x="151" y="-76.2" font-family="Arial" font-size="16.00">Waline Server</text>
<text text-anchor="middle" x="151" y="-58.2" font-family="Arial" font-size="16.00">PUBLIC_WALINE_SERVER_URL</text>
</g>
<!-- comments_runtime&#45;&gt;waline_server -->
<g id="edge15" class="edge">
<title>comments_runtime&#45;&gt;waline_server</title>
<path fill="none" stroke="#64748b" stroke-width="1.4" d="M151,-183.59C151,-162.88 151,-138.42 151,-117.68"/>
<polygon fill="#64748b" stroke="#64748b" stroke-width="1.4" points="153.8,-117.63 151,-109.63 148.2,-117.63 153.8,-117.63"/>
</g>
<!-- friend_feeds -->
<g id="node14" class="node">
<title>friend_feeds</title>
<polygon fill="#f5f3ff" stroke="#ddd6fe" stroke-width="1.2" points="1331.5,-708 1328.5,-712 1307.5,-712 1304.5,-708 1058.5,-708 1058.5,-670 1331.5,-670 1331.5,-708"/>
<text text-anchor="middle" x="1195" y="-685.2" font-family="Arial" font-size="16.00">External Friend RSS / Atom Feeds</text>
</g>
<!-- friend_feeds&#45;&gt;friend_circle_build -->
<g id="edge5" class="edge">
<title>friend_feeds&#45;&gt;friend_circle_build</title>
<path fill="none" stroke="#64748b" stroke-width="1.4" d="M1191.73,-669.83C1188.64,-652.64 1183.85,-625.98 1179.55,-602.08"/>
<polygon fill="#64748b" stroke="#64748b" stroke-width="1.4" points="1182.28,-601.47 1178.11,-594.09 1176.77,-602.46 1182.28,-601.47"/>
</g>
</g>
</svg>
